HIERARCHY
ROOT Hips
{
	OFFSET 0.000000 0.000000 0.000000
	CHANNELS 6 Xposition Yposition Zposition Zrotation Yrotation Xrotation 
	JOINT LHipJoint
	{
		OFFSET 0.000000 0.000000 0.000000
		CHANNELS 3 Zrotation Yrotation Xrotation
		JOINT LeftUpLeg
		{
			OFFSET 1.363060 -1.794630 0.839290
			CHANNELS 3 Zrotation Yrotation Xrotation
			JOINT LeftLeg
			{
				OFFSET 2.448110 -6.726130 0.000000
				CHANNELS 3 Zrotation Yrotation Xrotation
				JOINT LeftFoot
				{
					OFFSET 2.562200 -7.039590 0.000000
					CHANNELS 3 Zrotation Yrotation Xrotation
					JOINT LeftToeBase
					{
						OFFSET 0.157640 -0.433110 2.322550
						CHANNELS 3 Zrotation Yrotation Xrotation
						End Site
						{
							OFFSET 0.000000 0.000000 0.000000
						}
					}
				}
			}
		}
	}
	JOINT RHipJoint
	{
		OFFSET 0.000000 0.000000 0.000000
		CHANNELS 3 Zrotation Yrotation Xrotation
		JOINT RightUpLeg
		{
			OFFSET -1.305520 -1.794630 0.839290
			CHANNELS 3 Zrotation Yrotation Xrotation
			JOINT RightLeg
			{
				OFFSET -2.542530 -6.985550 0.000000
				CHANNELS 3 Zrotation Yrotation Xrotation
				JOINT RightFoot
				{
					OFFSET -2.568260 -7.056230 0.000000
					CHANNELS 3 Zrotation Yrotation Xrotation
					JOINT RightToeBase
					{
						OFFSET -0.164730 -0.452590 2.363150
						CHANNELS 3 Zrotation Yrotation Xrotation
						End Site
						{
							OFFSET 0.000000 0.000000 0.000000
						}
					}
				}
			}
		}
	}
	JOINT LowerBack
	{
		OFFSET 0.000000 0.000000 0.000000
		CHANNELS 3 Zrotation Yrotation Xrotation
		JOINT Spine
		{
			OFFSET 0.028270 2.035590 -0.193380
			CHANNELS 3 Zrotation Yrotation Xrotation
			JOINT Spine1
			{
				OFFSET 0.056720 2.048850 -0.042750
				CHANNELS 3 Zrotation Yrotation Xrotation
				JOINT Neck
				{
					OFFSET 0.000000 0.000000 0.000000
					CHANNELS 3 Zrotation Yrotation Xrotation
					JOINT Neck1
					{
						OFFSET -0.054170 1.746240 0.172020
						CHANNELS 3 Zrotation Yrotation Xrotation
						JOINT Head
						{
							OFFSET 0.104070 1.761360 -0.123970
							CHANNELS 3 Zrotation Yrotation Xrotation
							End Site
							{
								OFFSET 0.000000 0.000000 0.000000
							}
						}
					}
				}
				JOINT LeftShoulder
				{
					OFFSET 0.000000 0.000000 0.000000
					CHANNELS 3 Zrotation Yrotation Xrotation
					JOINT LeftArm
					{
						OFFSET 3.362410 1.200890 -0.311210
						CHANNELS 3 Zrotation Yrotation Xrotation
						JOINT LeftForeArm
						{
							OFFSET 4.983000 -0.000000 -0.000000
							CHANNELS 3 Zrotation Yrotation Xrotation
							JOINT LeftHand
							{
								OFFSET 3.483560 -0.000000 -0.000000
								CHANNELS 3 Zrotation Yrotation Xrotation
								JOINT LeftFingerBase
								{
									OFFSET 0.000000 0.000000 0.000000
									CHANNELS 3 Zrotation Yrotation Xrotation
									JOINT LeftHandIndex1
									{
										OFFSET 0.715260 -0.000000 -0.000000
										CHANNELS 3 Zrotation Yrotation Xrotation
										End Site
										{
											OFFSET 0.000000 0.000000 0.000000
										}
									}
								}
								JOINT LThumb
								{
									OFFSET 0.000000 0.000000 0.000000
									CHANNELS 3 Zrotation Yrotation Xrotation
									End Site
									{
										OFFSET 0.000000 0.000000 0.000000
									}
								}
							}
						}
					}
				}
				JOINT RightShoulder
				{
					OFFSET 0.000000 0.000000 0.000000
					CHANNELS 3 Zrotation Yrotation Xrotation
					JOINT RightArm
					{
						OFFSET -3.136600 1.374050 -0.404650
						CHANNELS 3 Zrotation Yrotation Xrotation
						JOINT RightForeArm
						{
							OFFSET -5.241900 -0.000000 -0.000000
							CHANNELS 3 Zrotation Yrotation Xrotation
							JOINT RightHand
							{
								OFFSET -3.444170 -0.000000 -0.000000
								CHANNELS 3 Zrotation Yrotation Xrotation
								JOINT RightFingerBase
								{
									OFFSET 0.000000 0.000000 0.000000
									CHANNELS 3 Zrotation Yrotation Xrotation
									JOINT RightHandIndex1
									{
										OFFSET -0.622530 -0.000000 -0.000000
										CHANNELS 3 Zrotation Yrotation Xrotation
										End Site
										{
											OFFSET 0.000000 0.000000 0.000000
										}
									}
								}
								JOINT RThumb
								{
									OFFSET 0.000000 0.000000 0.000000
									CHANNELS 3 Zrotation Yrotation Xrotation
									End Site
									{
										OFFSET 0.000000 0.000000 0.000000
									}
								}
							}
						}
					}
				}
			}
		}
	}
}
MOTION
Frames: 8
Frame Time: 0.008333
8.135784 14.721810 1.790708 82.790717 -83.042703 -35.448471 -9.333718 1.026865 5.542891 -10.145242 -12.063905 -60.312587 -0.886319 2.207490 60.824984 4.226095 13.644380 -30.970392 -5.750200 -0.000000 -63.814000 11.100967 0.832180 4.553730 1.000392 1.923447 -61.711363 0.135601 -3.883764 66.738249 -4.046931 -10.039431 -34.421845 4.889301 -0.000000 -71.246300 -3.541098 -1.280051 -9.522285 -1.346707 -1.213778 -5.111904 -4.540055 -1.484107 -0.178173 4.082285 -2.005652 -10.351894 -2.392022 -0.121018 -1.183381 0.000000 0.000000 0.000000 -2.148618 -0.059914 4.752137 -59.723235 -27.482711 -18.165888 -0.850779 -3.875135 -0.112954 32.945284 -7.813607 -2.394414 -0.127390 0.240126 -0.000000 0.000000 0.000000 0.000000 0.000000 0.000000 0.000000 4.913318 0.861199 4.139393 72.754111 17.463895 -23.091909 0.278430 11.689131 -0.079166 -27.165512 17.626251 -4.394816 0.178709 -0.306042 0.000000 0.000000 0.000000 0.000000 0.000000 0.000000 0.000000 
7.942368 14.970920 1.760681 83.867454 -83.205568 -38.674725 -9.392485 1.373388 5.178638 -10.518142 -10.615891 -55.409523 -1.099179 1.877386 56.931631 3.832001 12.989010 -28.166626 -4.853200 0.000000 -66.600000 11.178416 0.536676 4.101119 1.443901 1.025986 -56.491148 0.459577 -3.431754 62.280458 -3.769855 -9.429525 -32.449371 4.311900 0.000000 -72.597300 -3.747901 -1.151492 -8.798335 -1.335974 -1.040297 -4.908758 -4.385235 -1.290544 -0.183152 3.577895 -2.239693 -9.746746 -2.195338 -0.114768 -0.959972 0.000000 0.000000 0.000000 -1.519956 -0.082894 4.474081 -59.626122 -27.916784 -14.200738 -1.165612 -8.590588 -0.114770 32.499213 -6.288489 -1.916881 -0.169411 0.248416 -0.000000 0.000000 0.000000 0.000000 0.000000 0.000000 0.000000 3.589005 0.773178 3.808941 72.530447 18.265678 -18.541221 0.487598 14.753708 -0.078457 -26.854563 16.695006 -4.117722 0.195488 -0.311233 0.000000 0.000000 0.000000 0.000000 0.000000 0.000000 0.000000 
7.741102 15.230865 1.732370 84.608285 -83.394697 -41.615160 -9.468476 1.727615 4.803998 -10.737519 -9.015969 -50.500671 -1.259647 1.568279 52.875982 3.371817 12.238254 -24.600972 -3.787200 -0.000001 -70.124000 11.260610 0.215997 3.631480 1.868342 -0.045403 -51.180505 0.731949 -2.981113 57.532449 -3.403490 -8.680580 -29.681843 3.564500 -0.000000 -74.777900 -3.886004 -1.034313 -8.052181 -1.315002 -0.888015 -4.705972 -4.250705 -1.117468 -0.185601 3.146844 -2.438573 -9.092723 -2.021728 -0.111715 -0.725587 0.000000 0.000000 0.000000 -0.926233 -0.141699 4.185179 -59.225927 -28.115585 -10.515250 -1.409346 -13.518375 -0.117596 32.094335 -4.995474 -1.520822 -0.209074 0.255863 -0.000000 0.000000 0.000000 0.000000 0.000000 0.000000 0.000000 2.408061 0.709337 3.476309 71.979759 18.933954 -14.266647 0.651313 18.011443 -0.078537 -26.615467 15.622067 -3.822223 0.212184 -0.314978 0.000000 0.000000 0.000000 0.000000 0.000000 0.000000 0.000000 
7.532171 15.500184 1.706241 84.955618 -83.615051 -44.172973 -9.569628 2.084651 4.431471 -10.763152 -7.292947 -45.665548 -1.356550 1.291990 48.695478 2.866692 11.430167 -20.208528 -2.596500 -0.000000 -74.245900 11.345944 -0.133362 3.154624 2.255086 -1.281418 -45.861466 0.939035 -2.545039 52.537000 -2.955908 -7.833558 -26.000529 2.681100 0.000000 -77.822099 -3.951316 -0.929848 -7.305707 -1.284549 -0.758342 -4.503556 -4.139705 -0.966635 -0.165499 2.799831 -2.634372 -8.413227 -1.871817 -0.111407 -0.488260 0.000000 0.000000 0.000000 -0.383044 -0.143308 3.884560 -58.562178 -28.321167 -7.392283 -1.564285 -18.288039 -0.120853 31.715311 -4.177345 -1.271345 -0.244281 0.264338 -0.000000 0.000000 0.000000 0.000000 0.000000 0.000000 0.000000 1.395954 0.618948 3.140716 71.114233 19.572274 -10.464127 0.764165 21.312045 -0.079400 -26.411198 14.493197 -3.522924 0.227886 -0.317706 0.000000 0.000000 0.000000 0.000000 0.000000 0.000000 0.000000 
7.316402 15.777182 1.682441 84.907408 -83.868835 -46.309919 -9.700363 2.441021 4.072721 -10.572600 -5.490443 -40.979099 -1.383904 1.061096 44.441586 2.351218 10.601618 -14.975460 -1.350200 -0.000000 -78.627699 11.435149 -0.512577 2.681314 2.580717 -2.658492 -40.623908 1.070777 -2.141614 47.365209 -2.449599 -6.938483 -21.330775 1.722000 0.000000 -81.601800 -3.949046 -0.837321 -6.580135 -1.246504 -0.649315 -4.307643 -4.050673 -0.836786 -0.127615 2.534595 -2.807097 -7.712825 -1.746971 -0.113710 -0.250225 0.000000 0.000000 0.000000 0.134372 -0.093724 3.572443 -57.734467 -28.572448 -4.893450 -1.634091 -22.754942 -0.124164 31.384491 -3.840891 -1.165960 -0.274158 0.274844 -0.000000 0.000000 0.000000 0.000000 0.000000 0.000000 0.000000 0.554513 0.512753 2.806806 69.982205 20.185636 -7.304255 0.824493 24.591113 -0.081072 -26.195372 13.353008 -3.223932 0.241666 -0.319989 0.000000 0.000000 0.000000 0.000000 0.000000 0.000000 0.000000 
7.094708 16.059651 1.661005 84.486128 -84.156536 -48.004858 -9.861365 2.792090 3.741048 -10.159866 -3.669445 -36.520984 -1.342466 0.885254 40.182363 1.871302 9.779340 -8.949817 -0.135400 -0.000000 -82.821100 11.528858 -0.920864 2.225207 2.826870 -4.134939 -35.574945 1.124440 -1.791876 42.120570 -1.922365 -6.040224 -15.656514 0.767900 -0.000000 -85.814800 -3.884834 -0.756310 -5.901294 -1.202190 -0.559421 -4.124437 -3.980868 -0.727030 -0.075454 2.345632 -2.950857 -7.002965 -1.646255 -0.118205 -0.015390 0.000000 0.000000 0.000000 0.646564 0.008018 3.249418 -56.834470 -28.876577 -2.985966 -1.632184 -26.857894 -0.127482 31.135551 -3.899594 -1.177078 -0.298691 0.287702 -0.000000 0.000000 0.000000 0.000000 0.000000 0.000000 0.000000 -0.125831 0.392003 2.477892 68.643505 20.778381 -4.858627 0.836588 27.794906 -0.083493 -25.940334 12.226304 -2.928148 0.252995 -0.322241 0.000000 0.000000 0.000000 0.000000 0.000000 0.000000 0.000000 
6.868223 16.345056 1.641742 83.758869 -84.473156 -49.280571 -10.047028 3.131257 3.450380 -9.543869 -1.906728 -32.365402 -1.241532 0.766699 35.996064 1.478201 8.978901 -2.257114 0.951700 0.000000 -86.364400 11.627734 -1.351700 1.800897 2.979264 -5.657711 -30.831370 1.107518 -1.514969 36.938998 -1.423675 -5.159910 -9.042167 -0.086800 0.000000 -90.022000 -3.770261 -0.686287 -5.296075 -1.153944 -0.486759 -3.959451 -3.927397 -0.635955 -0.010979 2.226184 -3.077220 -6.300769 -1.567397 -0.124300 0.211122 0.000000 0.000000 0.000000 1.167513 0.161538 2.916832 -55.927005 -29.221386 -1.614308 -1.573860 -30.591263 -0.131048 30.995367 -4.230678 -1.269104 -0.318408 0.302750 -0.000000 0.000000 0.000000 0.000000 0.000000 0.000000 0.000000 -0.658337 0.245540 2.157521 67.155688 21.363979 -3.115351 0.808496 30.871031 -0.086542 -25.638753 11.123323 -2.638578 0.261730 -0.324671 0.000000 0.000000 0.000000 0.000000 0.000000 0.000000 0.000000 
6.637943 16.630576 1.624456 82.824569 -84.809481 -50.186407 -10.246519 3.448496 3.216676 -8.767383 -0.292834 -28.582137 -1.097773 0.696886 31.972386 1.216441 8.206256 4.883718 1.823800 -0.000000 -88.820000 11.730412 -1.791075 1.424396 3.033975 -7.165451 -26.517762 1.037971 -1.320509 31.984239 -1.007179 -4.284735 -1.655942 -0.739300 0.000001 -93.698300 -3.619041 -0.627207 -4.794714 -1.104036 -0.429965 -3.818922 -3.886498 -0.562662 0.062668 2.165009 -3.196638 -5.624022 -1.507319 -0.131373 0.424499 0.000000 0.000000 0.000000 1.703145 0.358978 2.577906 -55.052606 -29.576382 -0.737868 -1.472957 -33.985462 -0.135219 30.967522 -4.713175 -1.408248 -0.334037 0.319632 -0.000000 0.000000 0.000000 0.000000 0.000000 0.000000 0.000000 -1.063946 0.068007 1.850001 65.569843 21.951504 -2.031318 0.749238 33.776860 -0.090060 -25.289607 10.053656 -2.358523 0.267917 -0.327448 0.000000 0.000000 0.000000 0.000000 0.000000 0.000000 0.000000 
